<?xml version="1.0" standalone="no"?><!DOCTYPE svg PUBLIC "-//W3C//DTD SVG 1.1//EN" "http://www.w3.org/Graphics/SVG/1.1/DTD/svg11.dtd"><svg t="1659678525912" class="icon" viewBox="0 0 1024 1024" version="1.1" xmlns="http://www.w3.org/2000/svg" p-id="3763" xmlns:xlink="http://www.w3.org/1999/xlink" width="200" height="200"><defs><style type="text/css">@font-face { font-family: feedback-iconfont; src: url("//at.alicdn.com/t/font_1031158_u69w8yhxdu.woff2?t=1630033759944") format("woff2"), url("//at.alicdn.com/t/font_1031158_u69w8yhxdu.woff?t=1630033759944") format("woff"), url("//at.alicdn.com/t/font_1031158_u69w8yhxdu.ttf?t=1630033759944") format("truetype"); }
</style></defs><path d="M814.289455 876.241455h-605.09091a23.272727 23.272727 0 0 1-23.272727-23.272728v-698.181818a23.272727 23.272727 0 0 1 23.272727-23.272727h139.496728a23.272727 23.272727 0 1 1 0 46.545454H232.471273v651.636364h558.545454v-651.636364h-116.224a23.272727 23.272727 0 1 1 0-46.545454h139.496728a23.272727 23.272727 0 0 1 23.272727 23.272727v698.181818a23.272727 23.272727 0 0 1-23.272727 23.272728z" fill="#333333" p-id="3764"></path><path d="M721.198545 387.514182h-418.90909a23.272727 23.272727 0 1 1 0-46.545455h418.90909a23.272727 23.272727 0 1 1 0 46.545455zM721.198545 503.877818h-418.90909a23.272727 23.272727 0 1 1 0-46.545454h418.90909a23.272727 23.272727 0 1 1 0 46.545454zM721.198545 620.241455h-116.363636a23.272727 23.272727 0 1 1 0-46.545455h116.363636a23.272727 23.272727 0 1 1 0 46.545455zM674.653091 224.605091h-325.818182a23.272727 23.272727 0 0 1-23.272727-23.272727v-116.363637a23.272727 23.272727 0 0 1 23.272727-23.272727h325.818182a23.272727 23.272727 0 0 1 23.272727 23.272727v116.363637a23.272727 23.272727 0 0 1-23.272727 23.272727z m-302.545455-46.545455h279.272728v-69.818181h-279.272728v69.818181z" fill="#333333" p-id="3765"></path></svg>