<?xml version="1.0" standalone="no"?><!DOCTYPE svg PUBLIC "-//W3C//DTD SVG 1.1//EN" "http://www.w3.org/Graphics/SVG/1.1/DTD/svg11.dtd"><svg t="1659678522507" class="icon" viewBox="0 0 1024 1024" version="1.1" xmlns="http://www.w3.org/2000/svg" p-id="3621" xmlns:xlink="http://www.w3.org/1999/xlink" width="200" height="200"><defs><style type="text/css">@font-face { font-family: feedback-iconfont; src: url("//at.alicdn.com/t/font_1031158_u69w8yhxdu.woff2?t=1630033759944") format("woff2"), url("//at.alicdn.com/t/font_1031158_u69w8yhxdu.woff?t=1630033759944") format("woff"), url("//at.alicdn.com/t/font_1031158_u69w8yhxdu.ttf?t=1630033759944") format("truetype"); }
</style></defs><path d="M672.7 816.5H351.4c-12.3 0-23.4-7.5-27.9-19-0.8-1.9-18.9-47.7-37.3-103-25.4-76.1-38.2-131.2-38.2-163.6 0-70.5 27.5-136.8 77.3-186.7 49.9-49.9 116.2-77.3 186.7-77.3s136.8 27.5 186.7 77.3c49.9 49.9 77.3 116.2 77.3 186.7 0 32.4-12.9 87.5-38.2 163.6-18.4 55.3-36.5 101.1-37.3 103-4.5 11.5-15.5 19-27.8 19z m-300.8-60h280.2C675 696.2 716 578.2 716 530.9c0-112.5-91.5-204-204-204s-204 91.5-204 204c0 47.4 41 165.3 63.9 225.6z m280.8 159.1H371.3c-33.1 0-60-26.9-60-60v-39.1c0-33.1 26.9-60 60-60h281.3c33.1 0 60 26.9 60 60v39.1c0.1 33-26.9 60-59.9 60z m-281.4-60.1c0.1 0 0.1 0.1 0 0h281.3v-39.1H371.3v39.1z m241.9-239.7H410.9c-16.6 0-30-13.4-30-30s13.4-30 30-30h202.3c16.6 0 30 13.4 30 30s-13.4 30-30 30zM512 807c-16.6 0-30-13.4-30-30V614.7c0-16.6 13.4-30 30-30s30 13.4 30 30V777c0 16.6-13.4 30-30 30z m0-570.3c-16.6 0-30-13.4-30-30v-92.3c0-16.6 13.4-30 30-30s30 13.4 30 30v92.3c0 16.6-13.4 30-30 30z m244.8 79.5c-7.7 0-15.4-2.9-21.2-8.8-11.7-11.7-11.7-30.7 0-42.4l65.3-65.3c11.7-11.7 30.7-11.7 42.4 0s11.7 30.7 0 42.4L778 307.4c-5.9 5.9-13.5 8.8-21.2 8.8z m-488.5 0c-7.7 0-15.4-2.9-21.2-8.8l-65.3-65.3c-11.7-11.7-11.7-30.7 0-42.4s30.7-11.7 42.4 0l65.3 65.3c11.7 11.7 11.7 30.7 0 42.4-5.8 5.9-13.5 8.8-21.2 8.8z m660.2 244.7h-92.3c-16.6 0-30-13.4-30-30s13.4-30 30-30h92.3c16.6 0 30 13.4 30 30s-13.5 30-30 30z m-740.7 0H95.5c-16.6 0-30-13.4-30-30s13.4-30 30-30h92.3c16.6 0 30 13.4 30 30s-13.4 30-30 30z" fill="#666666" p-id="3622"></path></svg>